<mxfile host="Electron" modified="2023-12-01T19:13:36.864Z" agent="Mozilla/5.0 (Macintosh; Intel Mac OS X 10_15_7) AppleWebKit/537.36 (KHTML, like Gecko) draw.io/22.0.3 Chrome/114.0.5735.289 Electron/25.8.4 Safari/537.36" etag="4izPq5Oj-6m-lNEEUyau" version="22.0.3" type="device" pages="3">
  <diagram name="User Registration" id="I11aeULpgsoVVp3GMLf6">
    <mxGraphModel dx="1152" dy="899" grid="1" gridSize="10" guides="1" tooltips="1" connect="1" arrows="1" fold="1" page="0" pageScale="1" pageWidth="850" pageHeight="1100" math="0" shadow="0">
      <root>
        <mxCell id="0" />
        <mxCell id="1" parent="0" />
        <mxCell id="t9h08wB3UkuwHOLylfUy-18" value="" style="edgeStyle=orthogonalEdgeStyle;rounded=0;orthogonalLoop=1;jettySize=auto;html=1;" edge="1" parent="1" source="t9h08wB3UkuwHOLylfUy-1">
          <mxGeometry relative="1" as="geometry">
            <mxPoint x="220" y="180" as="targetPoint" />
          </mxGeometry>
        </mxCell>
        <mxCell id="t9h08wB3UkuwHOLylfUy-1" value="Register service calls" style="rounded=1;whiteSpace=wrap;html=1;fontSize=12;glass=0;strokeWidth=1;shadow=0;" vertex="1" parent="1">
          <mxGeometry x="160" y="80" width="120" height="40" as="geometry" />
        </mxCell>
        <mxCell id="t9h08wB3UkuwHOLylfUy-118" value="" style="edgeStyle=orthogonalEdgeStyle;rounded=0;orthogonalLoop=1;jettySize=auto;html=1;" edge="1" parent="1" source="t9h08wB3UkuwHOLylfUy-9">
          <mxGeometry relative="1" as="geometry">
            <mxPoint x="220" y="890" as="targetPoint" />
          </mxGeometry>
        </mxCell>
        <mxCell id="t9h08wB3UkuwHOLylfUy-9" value="Get User information" style="whiteSpace=wrap;html=1;strokeWidth=2;" vertex="1" parent="1">
          <mxGeometry x="160" y="750" width="120" height="60" as="geometry" />
        </mxCell>
        <mxCell id="t9h08wB3UkuwHOLylfUy-38" value="Go to first screen of&amp;nbsp;&lt;br&gt;onboarding" style="whiteSpace=wrap;html=1;strokeWidth=2;" vertex="1" parent="1">
          <mxGeometry x="160" y="180" width="120" height="60" as="geometry" />
        </mxCell>
        <mxCell id="t9h08wB3UkuwHOLylfUy-49" value="User Registration" style="text;strokeColor=none;align=center;fillColor=none;html=1;verticalAlign=middle;whiteSpace=wrap;rounded=0;" vertex="1" parent="1">
          <mxGeometry x="130" y="30" width="180" height="30" as="geometry" />
        </mxCell>
        <mxCell id="t9h08wB3UkuwHOLylfUy-102" value="" style="edgeStyle=orthogonalEdgeStyle;rounded=0;orthogonalLoop=1;jettySize=auto;html=1;" edge="1" parent="1" source="t9h08wB3UkuwHOLylfUy-98" target="t9h08wB3UkuwHOLylfUy-101">
          <mxGeometry relative="1" as="geometry" />
        </mxCell>
        <mxCell id="t9h08wB3UkuwHOLylfUy-103" value="Yes" style="edgeLabel;html=1;align=center;verticalAlign=middle;resizable=0;points=[];" vertex="1" connectable="0" parent="t9h08wB3UkuwHOLylfUy-102">
          <mxGeometry x="-0.2" y="2" relative="1" as="geometry">
            <mxPoint x="8" as="offset" />
          </mxGeometry>
        </mxCell>
        <mxCell id="t9h08wB3UkuwHOLylfUy-108" value="" style="edgeStyle=orthogonalEdgeStyle;rounded=0;orthogonalLoop=1;jettySize=auto;html=1;" edge="1" parent="1" source="t9h08wB3UkuwHOLylfUy-98" target="t9h08wB3UkuwHOLylfUy-107">
          <mxGeometry relative="1" as="geometry" />
        </mxCell>
        <mxCell id="t9h08wB3UkuwHOLylfUy-113" value="No" style="edgeLabel;html=1;align=center;verticalAlign=middle;resizable=0;points=[];" vertex="1" connectable="0" parent="t9h08wB3UkuwHOLylfUy-108">
          <mxGeometry x="-0.3143" y="2" relative="1" as="geometry">
            <mxPoint y="12" as="offset" />
          </mxGeometry>
        </mxCell>
        <mxCell id="t9h08wB3UkuwHOLylfUy-98" value="Is user invited to family" style="strokeWidth=2;html=1;shape=mxgraph.flowchart.decision;whiteSpace=wrap;" vertex="1" parent="1">
          <mxGeometry x="170" y="310" width="100" height="100" as="geometry" />
        </mxCell>
        <mxCell id="t9h08wB3UkuwHOLylfUy-99" style="edgeStyle=orthogonalEdgeStyle;rounded=0;orthogonalLoop=1;jettySize=auto;html=1;entryX=0.5;entryY=0;entryDx=0;entryDy=0;entryPerimeter=0;" edge="1" parent="1" source="t9h08wB3UkuwHOLylfUy-38" target="t9h08wB3UkuwHOLylfUy-98">
          <mxGeometry relative="1" as="geometry" />
        </mxCell>
        <mxCell id="t9h08wB3UkuwHOLylfUy-100" value="Before next screen" style="edgeLabel;html=1;align=center;verticalAlign=middle;resizable=0;points=[];" vertex="1" connectable="0" parent="t9h08wB3UkuwHOLylfUy-99">
          <mxGeometry x="0.0286" y="1" relative="1" as="geometry">
            <mxPoint as="offset" />
          </mxGeometry>
        </mxCell>
        <mxCell id="t9h08wB3UkuwHOLylfUy-115" style="edgeStyle=orthogonalEdgeStyle;rounded=0;orthogonalLoop=1;jettySize=auto;html=1;entryX=0.5;entryY=0;entryDx=0;entryDy=0;" edge="1" parent="1" source="t9h08wB3UkuwHOLylfUy-101" target="t9h08wB3UkuwHOLylfUy-114">
          <mxGeometry relative="1" as="geometry" />
        </mxCell>
        <mxCell id="t9h08wB3UkuwHOLylfUy-101" value="Navigate to summary" style="whiteSpace=wrap;html=1;strokeWidth=2;" vertex="1" parent="1">
          <mxGeometry x="160" y="510" width="120" height="60" as="geometry" />
        </mxCell>
        <mxCell id="t9h08wB3UkuwHOLylfUy-109" style="edgeStyle=orthogonalEdgeStyle;rounded=0;orthogonalLoop=1;jettySize=auto;html=1;entryX=1;entryY=0.5;entryDx=0;entryDy=0;exitX=0.5;exitY=1;exitDx=0;exitDy=0;" edge="1" parent="1" source="t9h08wB3UkuwHOLylfUy-107" target="t9h08wB3UkuwHOLylfUy-101">
          <mxGeometry relative="1" as="geometry">
            <mxPoint x="430" y="410" as="sourcePoint" />
            <mxPoint x="370" y="605" as="targetPoint" />
          </mxGeometry>
        </mxCell>
        <mxCell id="t9h08wB3UkuwHOLylfUy-107" value="Finish rest of onboarding" style="whiteSpace=wrap;html=1;strokeWidth=2;" vertex="1" parent="1">
          <mxGeometry x="340" y="330" width="120" height="60" as="geometry" />
        </mxCell>
        <mxCell id="t9h08wB3UkuwHOLylfUy-116" style="edgeStyle=orthogonalEdgeStyle;rounded=0;orthogonalLoop=1;jettySize=auto;html=1;entryX=0.5;entryY=0;entryDx=0;entryDy=0;" edge="1" parent="1" source="t9h08wB3UkuwHOLylfUy-114" target="t9h08wB3UkuwHOLylfUy-9">
          <mxGeometry relative="1" as="geometry" />
        </mxCell>
        <mxCell id="t9h08wB3UkuwHOLylfUy-114" value="Call check family status" style="whiteSpace=wrap;html=1;strokeWidth=2;" vertex="1" parent="1">
          <mxGeometry x="160" y="630" width="120" height="60" as="geometry" />
        </mxCell>
        <mxCell id="t9h08wB3UkuwHOLylfUy-117" value="" style="shape=waypoint;sketch=0;size=6;pointerEvents=1;points=[];fillColor=default;resizable=0;rotatable=0;perimeter=centerPerimeter;snapToPoint=1;strokeWidth=2;" vertex="1" parent="1">
          <mxGeometry x="210" y="880" width="20" height="20" as="geometry" />
        </mxCell>
        <mxCell id="pOQlxlrW-7M5fWKGBgPx-1" value="This is called when we init on the onboarding page" style="shape=note;whiteSpace=wrap;html=1;backgroundOutline=1;fontColor=#000000;darkOpacity=0.05;fillColor=#FFF9B2;strokeColor=none;fillStyle=solid;direction=west;gradientDirection=north;gradientColor=#FFF2A1;shadow=1;size=20;pointerEvents=1;" vertex="1" parent="1">
          <mxGeometry x="-240" y="280" width="140" height="160" as="geometry" />
        </mxCell>
        <mxCell id="pOQlxlrW-7M5fWKGBgPx-2" style="edgeStyle=orthogonalEdgeStyle;rounded=0;orthogonalLoop=1;jettySize=auto;html=1;entryX=0;entryY=0.5;entryDx=0;entryDy=0;entryPerimeter=0;" edge="1" parent="1" source="pOQlxlrW-7M5fWKGBgPx-1" target="t9h08wB3UkuwHOLylfUy-98">
          <mxGeometry relative="1" as="geometry" />
        </mxCell>
      </root>
    </mxGraphModel>
  </diagram>
  <diagram id="Cz_ZLe5MWmKR2mvVQLMz" name="Validate Token">
    <mxGraphModel dx="1274" dy="854" grid="1" gridSize="10" guides="1" tooltips="1" connect="1" arrows="1" fold="1" page="0" pageScale="1" pageWidth="850" pageHeight="1100" math="0" shadow="0">
      <root>
        <mxCell id="0" />
        <mxCell id="1" parent="0" />
        <mxCell id="hUvhQDGpwkOQL54ozyJn-1" value="Validate refresh token" style="rounded=1;whiteSpace=wrap;html=1;fontSize=12;glass=0;strokeWidth=1;shadow=0;" vertex="1" parent="1">
          <mxGeometry x="750" y="80" width="120" height="40" as="geometry" />
        </mxCell>
        <mxCell id="hUvhQDGpwkOQL54ozyJn-2" value="User closes app in the middle of onboarding process&lt;br&gt;App awakens" style="text;strokeColor=none;align=center;fillColor=none;html=1;verticalAlign=middle;whiteSpace=wrap;rounded=0;" vertex="1" parent="1">
          <mxGeometry x="720" y="20" width="180" height="40" as="geometry" />
        </mxCell>
        <mxCell id="hUvhQDGpwkOQL54ozyJn-3" value="" style="edgeStyle=orthogonalEdgeStyle;rounded=0;orthogonalLoop=1;jettySize=auto;html=1;" edge="1" parent="1" source="hUvhQDGpwkOQL54ozyJn-6" target="hUvhQDGpwkOQL54ozyJn-9">
          <mxGeometry relative="1" as="geometry" />
        </mxCell>
        <mxCell id="hUvhQDGpwkOQL54ozyJn-4" value="No" style="edgeLabel;html=1;align=center;verticalAlign=middle;resizable=0;points=[];" vertex="1" connectable="0" parent="hUvhQDGpwkOQL54ozyJn-3">
          <mxGeometry x="-0.0571" y="1" relative="1" as="geometry">
            <mxPoint as="offset" />
          </mxGeometry>
        </mxCell>
        <mxCell id="hUvhQDGpwkOQL54ozyJn-5" value="" style="edgeStyle=orthogonalEdgeStyle;rounded=0;orthogonalLoop=1;jettySize=auto;html=1;" edge="1" parent="1" source="hUvhQDGpwkOQL54ozyJn-6" target="hUvhQDGpwkOQL54ozyJn-35">
          <mxGeometry relative="1" as="geometry" />
        </mxCell>
        <mxCell id="hUvhQDGpwkOQL54ozyJn-6" value="Is valid token" style="strokeWidth=2;html=1;shape=mxgraph.flowchart.decision;whiteSpace=wrap;" vertex="1" parent="1">
          <mxGeometry x="760" y="190" width="100" height="100" as="geometry" />
        </mxCell>
        <mxCell id="hUvhQDGpwkOQL54ozyJn-7" style="edgeStyle=orthogonalEdgeStyle;rounded=0;orthogonalLoop=1;jettySize=auto;html=1;entryX=0.5;entryY=0;entryDx=0;entryDy=0;entryPerimeter=0;" edge="1" parent="1" source="hUvhQDGpwkOQL54ozyJn-1" target="hUvhQDGpwkOQL54ozyJn-6">
          <mxGeometry relative="1" as="geometry" />
        </mxCell>
        <mxCell id="hUvhQDGpwkOQL54ozyJn-8" value="" style="edgeStyle=orthogonalEdgeStyle;rounded=0;orthogonalLoop=1;jettySize=auto;html=1;" edge="1" parent="1" source="hUvhQDGpwkOQL54ozyJn-9" target="hUvhQDGpwkOQL54ozyJn-10">
          <mxGeometry relative="1" as="geometry" />
        </mxCell>
        <mxCell id="hUvhQDGpwkOQL54ozyJn-9" value="Navigate to login" style="whiteSpace=wrap;html=1;strokeWidth=2;" vertex="1" parent="1">
          <mxGeometry x="930" y="210" width="120" height="60" as="geometry" />
        </mxCell>
        <mxCell id="hUvhQDGpwkOQL54ozyJn-10" value="" style="shape=waypoint;sketch=0;size=6;pointerEvents=1;points=[];fillColor=default;resizable=0;rotatable=0;perimeter=centerPerimeter;snapToPoint=1;strokeWidth=2;" vertex="1" parent="1">
          <mxGeometry x="1180" y="230" width="20" height="20" as="geometry" />
        </mxCell>
        <mxCell id="hUvhQDGpwkOQL54ozyJn-11" value="" style="edgeStyle=orthogonalEdgeStyle;rounded=0;orthogonalLoop=1;jettySize=auto;html=1;" edge="1" parent="1" source="hUvhQDGpwkOQL54ozyJn-15" target="hUvhQDGpwkOQL54ozyJn-17">
          <mxGeometry relative="1" as="geometry" />
        </mxCell>
        <mxCell id="hUvhQDGpwkOQL54ozyJn-12" value="NO" style="edgeLabel;html=1;align=center;verticalAlign=middle;resizable=0;points=[];" vertex="1" connectable="0" parent="hUvhQDGpwkOQL54ozyJn-11">
          <mxGeometry x="-0.12" y="1" relative="1" as="geometry">
            <mxPoint x="9" y="-4" as="offset" />
          </mxGeometry>
        </mxCell>
        <mxCell id="hUvhQDGpwkOQL54ozyJn-13" style="edgeStyle=orthogonalEdgeStyle;rounded=0;orthogonalLoop=1;jettySize=auto;html=1;entryX=1;entryY=0.5;entryDx=0;entryDy=0;" edge="1" parent="1" source="hUvhQDGpwkOQL54ozyJn-15" target="hUvhQDGpwkOQL54ozyJn-22">
          <mxGeometry relative="1" as="geometry">
            <Array as="points">
              <mxPoint x="1010" y="590" />
              <mxPoint x="1010" y="910" />
            </Array>
          </mxGeometry>
        </mxCell>
        <mxCell id="hUvhQDGpwkOQL54ozyJn-14" value="Yes" style="edgeLabel;html=1;align=center;verticalAlign=middle;resizable=0;points=[];" vertex="1" connectable="0" parent="hUvhQDGpwkOQL54ozyJn-13">
          <mxGeometry x="-0.1524" y="1" relative="1" as="geometry">
            <mxPoint as="offset" />
          </mxGeometry>
        </mxCell>
        <mxCell id="hUvhQDGpwkOQL54ozyJn-15" value="Has user onboarded at least to the first step?" style="strokeWidth=2;html=1;shape=mxgraph.flowchart.decision;whiteSpace=wrap;" vertex="1" parent="1">
          <mxGeometry x="760" y="540" width="100" height="100" as="geometry" />
        </mxCell>
        <mxCell id="hUvhQDGpwkOQL54ozyJn-16" value="" style="edgeStyle=orthogonalEdgeStyle;rounded=0;orthogonalLoop=1;jettySize=auto;html=1;" edge="1" parent="1" source="hUvhQDGpwkOQL54ozyJn-17" target="hUvhQDGpwkOQL54ozyJn-22">
          <mxGeometry relative="1" as="geometry" />
        </mxCell>
        <mxCell id="hUvhQDGpwkOQL54ozyJn-17" value="Go to first screen of onboarding" style="whiteSpace=wrap;html=1;strokeWidth=2;" vertex="1" parent="1">
          <mxGeometry x="750" y="740" width="120" height="60" as="geometry" />
        </mxCell>
        <mxCell id="hUvhQDGpwkOQL54ozyJn-18" value="" style="edgeStyle=orthogonalEdgeStyle;rounded=0;orthogonalLoop=1;jettySize=auto;html=1;" edge="1" parent="1" source="hUvhQDGpwkOQL54ozyJn-22" target="hUvhQDGpwkOQL54ozyJn-24">
          <mxGeometry relative="1" as="geometry" />
        </mxCell>
        <mxCell id="hUvhQDGpwkOQL54ozyJn-19" value="Yes" style="edgeLabel;html=1;align=center;verticalAlign=middle;resizable=0;points=[];" vertex="1" connectable="0" parent="hUvhQDGpwkOQL54ozyJn-18">
          <mxGeometry x="0.0444" y="-1" relative="1" as="geometry">
            <mxPoint x="21" as="offset" />
          </mxGeometry>
        </mxCell>
        <mxCell id="hUvhQDGpwkOQL54ozyJn-20" value="" style="edgeStyle=orthogonalEdgeStyle;rounded=0;orthogonalLoop=1;jettySize=auto;html=1;" edge="1" parent="1" source="hUvhQDGpwkOQL54ozyJn-22" target="hUvhQDGpwkOQL54ozyJn-26">
          <mxGeometry relative="1" as="geometry" />
        </mxCell>
        <mxCell id="hUvhQDGpwkOQL54ozyJn-21" value="No" style="edgeLabel;html=1;align=center;verticalAlign=middle;resizable=0;points=[];" vertex="1" connectable="0" parent="hUvhQDGpwkOQL54ozyJn-20">
          <mxGeometry x="-0.1667" y="-1" relative="1" as="geometry">
            <mxPoint as="offset" />
          </mxGeometry>
        </mxCell>
        <mxCell id="hUvhQDGpwkOQL54ozyJn-22" value="Is user invited to family" style="rhombus;whiteSpace=wrap;html=1;strokeWidth=2;" vertex="1" parent="1">
          <mxGeometry x="770" y="870" width="80" height="80" as="geometry" />
        </mxCell>
        <mxCell id="hUvhQDGpwkOQL54ozyJn-23" value="" style="edgeStyle=orthogonalEdgeStyle;rounded=0;orthogonalLoop=1;jettySize=auto;html=1;" edge="1" parent="1" source="hUvhQDGpwkOQL54ozyJn-24" target="hUvhQDGpwkOQL54ozyJn-28">
          <mxGeometry relative="1" as="geometry" />
        </mxCell>
        <mxCell id="hUvhQDGpwkOQL54ozyJn-24" value="Navigate to summary" style="whiteSpace=wrap;html=1;strokeWidth=2;" vertex="1" parent="1">
          <mxGeometry x="750" y="1040" width="120" height="60" as="geometry" />
        </mxCell>
        <mxCell id="hUvhQDGpwkOQL54ozyJn-25" style="edgeStyle=orthogonalEdgeStyle;rounded=0;orthogonalLoop=1;jettySize=auto;html=1;entryX=0;entryY=0.5;entryDx=0;entryDy=0;" edge="1" parent="1" source="hUvhQDGpwkOQL54ozyJn-26" target="hUvhQDGpwkOQL54ozyJn-24">
          <mxGeometry relative="1" as="geometry">
            <Array as="points">
              <mxPoint x="650" y="1070" />
            </Array>
          </mxGeometry>
        </mxCell>
        <mxCell id="hUvhQDGpwkOQL54ozyJn-26" value="Finish rest of onboarding" style="whiteSpace=wrap;html=1;strokeWidth=2;" vertex="1" parent="1">
          <mxGeometry x="590" y="880" width="120" height="60" as="geometry" />
        </mxCell>
        <mxCell id="hUvhQDGpwkOQL54ozyJn-27" value="" style="edgeStyle=orthogonalEdgeStyle;rounded=0;orthogonalLoop=1;jettySize=auto;html=1;" edge="1" parent="1" source="hUvhQDGpwkOQL54ozyJn-28" target="hUvhQDGpwkOQL54ozyJn-30">
          <mxGeometry relative="1" as="geometry" />
        </mxCell>
        <mxCell id="hUvhQDGpwkOQL54ozyJn-28" value="Check family status" style="whiteSpace=wrap;html=1;strokeWidth=2;" vertex="1" parent="1">
          <mxGeometry x="750" y="1160" width="120" height="60" as="geometry" />
        </mxCell>
        <mxCell id="hUvhQDGpwkOQL54ozyJn-29" value="" style="edgeStyle=orthogonalEdgeStyle;rounded=0;orthogonalLoop=1;jettySize=auto;html=1;" edge="1" parent="1" source="hUvhQDGpwkOQL54ozyJn-30" target="hUvhQDGpwkOQL54ozyJn-31">
          <mxGeometry relative="1" as="geometry" />
        </mxCell>
        <mxCell id="hUvhQDGpwkOQL54ozyJn-30" value="Get user information" style="whiteSpace=wrap;html=1;strokeWidth=2;" vertex="1" parent="1">
          <mxGeometry x="750" y="1300" width="120" height="60" as="geometry" />
        </mxCell>
        <mxCell id="hUvhQDGpwkOQL54ozyJn-31" value="" style="shape=waypoint;sketch=0;size=6;pointerEvents=1;points=[];fillColor=default;resizable=0;rotatable=0;perimeter=centerPerimeter;snapToPoint=1;strokeWidth=2;" vertex="1" parent="1">
          <mxGeometry x="800" y="1460" width="20" height="20" as="geometry" />
        </mxCell>
        <mxCell id="hUvhQDGpwkOQL54ozyJn-32" value="How?&lt;br&gt;We should check if the user&amp;nbsp;" style="shape=note;whiteSpace=wrap;html=1;backgroundOutline=1;fontColor=#000000;darkOpacity=0.05;fillColor=#FFF9B2;strokeColor=none;fillStyle=solid;direction=west;gradientDirection=north;gradientColor=#FFF2A1;shadow=1;size=20;pointerEvents=1;" vertex="1" parent="1">
          <mxGeometry x="560" y="510" width="140" height="160" as="geometry" />
        </mxCell>
        <mxCell id="hUvhQDGpwkOQL54ozyJn-33" style="edgeStyle=orthogonalEdgeStyle;rounded=0;orthogonalLoop=1;jettySize=auto;html=1;entryX=1;entryY=0.5;entryDx=0;entryDy=0;" edge="1" parent="1" source="hUvhQDGpwkOQL54ozyJn-35" target="hUvhQDGpwkOQL54ozyJn-24">
          <mxGeometry relative="1" as="geometry">
            <Array as="points">
              <mxPoint x="1100" y="420" />
              <mxPoint x="1100" y="1070" />
            </Array>
          </mxGeometry>
        </mxCell>
        <mxCell id="hUvhQDGpwkOQL54ozyJn-34" value="Yes" style="edgeLabel;html=1;align=center;verticalAlign=middle;resizable=0;points=[];" vertex="1" connectable="0" parent="hUvhQDGpwkOQL54ozyJn-33">
          <mxGeometry x="-0.0781" y="-2" relative="1" as="geometry">
            <mxPoint x="12" as="offset" />
          </mxGeometry>
        </mxCell>
        <mxCell id="hUvhQDGpwkOQL54ozyJn-35" value="Is user &lt;br&gt;onboarded" style="strokeWidth=2;html=1;shape=mxgraph.flowchart.decision;whiteSpace=wrap;" vertex="1" parent="1">
          <mxGeometry x="760" y="370" width="100" height="100" as="geometry" />
        </mxCell>
        <mxCell id="hUvhQDGpwkOQL54ozyJn-36" style="edgeStyle=orthogonalEdgeStyle;rounded=0;orthogonalLoop=1;jettySize=auto;html=1;entryX=0.5;entryY=0;entryDx=0;entryDy=0;entryPerimeter=0;" edge="1" parent="1" source="hUvhQDGpwkOQL54ozyJn-35" target="hUvhQDGpwkOQL54ozyJn-15">
          <mxGeometry relative="1" as="geometry" />
        </mxCell>
        <mxCell id="hUvhQDGpwkOQL54ozyJn-37" value="No" style="edgeLabel;html=1;align=center;verticalAlign=middle;resizable=0;points=[];" vertex="1" connectable="0" parent="hUvhQDGpwkOQL54ozyJn-36">
          <mxGeometry x="-0.151" y="-2" relative="1" as="geometry">
            <mxPoint x="12" as="offset" />
          </mxGeometry>
        </mxCell>
        <mxCell id="hUvhQDGpwkOQL54ozyJn-38" style="edgeStyle=orthogonalEdgeStyle;rounded=0;orthogonalLoop=1;jettySize=auto;html=1;entryX=0;entryY=0.5;entryDx=0;entryDy=0;entryPerimeter=0;" edge="1" parent="1" source="hUvhQDGpwkOQL54ozyJn-32" target="hUvhQDGpwkOQL54ozyJn-15">
          <mxGeometry relative="1" as="geometry" />
        </mxCell>
      </root>
    </mxGraphModel>
  </diagram>
  <diagram id="auh5uTaQjy6GIx5TE4lT" name="User Login">
    <mxGraphModel dx="474" dy="809" grid="1" gridSize="10" guides="1" tooltips="1" connect="1" arrows="1" fold="1" page="0" pageScale="1" pageWidth="850" pageHeight="1100" math="0" shadow="0">
      <root>
        <mxCell id="0" />
        <mxCell id="1" parent="0" />
        <mxCell id="OzDNeDnA2lBw9-A2b7hw-1" value="" style="rounded=0;html=1;jettySize=auto;orthogonalLoop=1;fontSize=11;endArrow=block;endFill=0;endSize=8;strokeWidth=1;shadow=0;labelBackgroundColor=none;edgeStyle=orthogonalEdgeStyle;" edge="1" parent="1" source="OzDNeDnA2lBw9-A2b7hw-2" target="OzDNeDnA2lBw9-A2b7hw-6">
          <mxGeometry relative="1" as="geometry" />
        </mxCell>
        <mxCell id="OzDNeDnA2lBw9-A2b7hw-2" value="User login" style="rounded=1;whiteSpace=wrap;html=1;fontSize=12;glass=0;strokeWidth=1;shadow=0;" vertex="1" parent="1">
          <mxGeometry x="1480" y="70" width="120" height="40" as="geometry" />
        </mxCell>
        <mxCell id="OzDNeDnA2lBw9-A2b7hw-3" value="No" style="edgeStyle=orthogonalEdgeStyle;rounded=0;html=1;jettySize=auto;orthogonalLoop=1;fontSize=11;endArrow=block;endFill=0;endSize=8;strokeWidth=1;shadow=0;labelBackgroundColor=none;entryX=0;entryY=0.5;entryDx=0;entryDy=0;" edge="1" parent="1" source="OzDNeDnA2lBw9-A2b7hw-6">
          <mxGeometry x="0.1982" y="10" relative="1" as="geometry">
            <mxPoint as="offset" />
            <mxPoint x="1674" y="200" as="targetPoint" />
          </mxGeometry>
        </mxCell>
        <mxCell id="OzDNeDnA2lBw9-A2b7hw-4" value="" style="edgeStyle=orthogonalEdgeStyle;rounded=0;orthogonalLoop=1;jettySize=auto;html=1;" edge="1" parent="1" source="OzDNeDnA2lBw9-A2b7hw-6" target="OzDNeDnA2lBw9-A2b7hw-15">
          <mxGeometry relative="1" as="geometry" />
        </mxCell>
        <mxCell id="OzDNeDnA2lBw9-A2b7hw-5" value="Yes" style="edgeLabel;html=1;align=center;verticalAlign=middle;resizable=0;points=[];" vertex="1" connectable="0" parent="OzDNeDnA2lBw9-A2b7hw-4">
          <mxGeometry x="0.075" y="2" relative="1" as="geometry">
            <mxPoint x="8" as="offset" />
          </mxGeometry>
        </mxCell>
        <mxCell id="OzDNeDnA2lBw9-A2b7hw-6" value="User been&lt;br&gt;invited to &lt;br&gt;family?" style="rhombus;whiteSpace=wrap;html=1;shadow=0;fontFamily=Helvetica;fontSize=12;align=center;strokeWidth=1;spacing=6;spacingTop=-4;" vertex="1" parent="1">
          <mxGeometry x="1490" y="160" width="100" height="80" as="geometry" />
        </mxCell>
        <mxCell id="OzDNeDnA2lBw9-A2b7hw-7" value="Yes" style="edgeStyle=orthogonalEdgeStyle;rounded=0;orthogonalLoop=1;jettySize=auto;html=1;" edge="1" parent="1" source="OzDNeDnA2lBw9-A2b7hw-10" target="OzDNeDnA2lBw9-A2b7hw-25">
          <mxGeometry x="-0.1111" y="10" relative="1" as="geometry">
            <mxPoint as="offset" />
          </mxGeometry>
        </mxCell>
        <mxCell id="OzDNeDnA2lBw9-A2b7hw-8" value="" style="edgeStyle=orthogonalEdgeStyle;rounded=0;orthogonalLoop=1;jettySize=auto;html=1;" edge="1" parent="1" source="OzDNeDnA2lBw9-A2b7hw-10" target="OzDNeDnA2lBw9-A2b7hw-27">
          <mxGeometry relative="1" as="geometry" />
        </mxCell>
        <mxCell id="OzDNeDnA2lBw9-A2b7hw-9" value="No" style="edgeLabel;html=1;align=center;verticalAlign=middle;resizable=0;points=[];" vertex="1" connectable="0" parent="OzDNeDnA2lBw9-A2b7hw-8">
          <mxGeometry x="-0.0286" y="-1" relative="1" as="geometry">
            <mxPoint y="9" as="offset" />
          </mxGeometry>
        </mxCell>
        <mxCell id="OzDNeDnA2lBw9-A2b7hw-10" value="Is User the&lt;br&gt;owner?" style="rhombus;whiteSpace=wrap;html=1;shadow=0;fontFamily=Helvetica;fontSize=12;align=center;strokeWidth=1;spacing=6;spacingTop=-4;" vertex="1" parent="1">
          <mxGeometry x="1490" y="470" width="100" height="80" as="geometry" />
        </mxCell>
        <mxCell id="OzDNeDnA2lBw9-A2b7hw-11" style="edgeStyle=orthogonalEdgeStyle;rounded=0;orthogonalLoop=1;jettySize=auto;html=1;entryX=0.5;entryY=0;entryDx=0;entryDy=0;" edge="1" parent="1" source="OzDNeDnA2lBw9-A2b7hw-15" target="OzDNeDnA2lBw9-A2b7hw-10">
          <mxGeometry relative="1" as="geometry" />
        </mxCell>
        <mxCell id="OzDNeDnA2lBw9-A2b7hw-12" value="Yes" style="edgeLabel;html=1;align=center;verticalAlign=middle;resizable=0;points=[];" vertex="1" connectable="0" parent="OzDNeDnA2lBw9-A2b7hw-11">
          <mxGeometry x="-0.1714" y="4" relative="1" as="geometry">
            <mxPoint x="6" as="offset" />
          </mxGeometry>
        </mxCell>
        <mxCell id="OzDNeDnA2lBw9-A2b7hw-13" style="edgeStyle=orthogonalEdgeStyle;rounded=0;orthogonalLoop=1;jettySize=auto;html=1;entryX=1;entryY=0.5;entryDx=0;entryDy=0;" edge="1" parent="1" source="OzDNeDnA2lBw9-A2b7hw-15" target="OzDNeDnA2lBw9-A2b7hw-39">
          <mxGeometry relative="1" as="geometry" />
        </mxCell>
        <mxCell id="OzDNeDnA2lBw9-A2b7hw-14" value="No" style="edgeLabel;html=1;align=center;verticalAlign=middle;resizable=0;points=[];" vertex="1" connectable="0" parent="OzDNeDnA2lBw9-A2b7hw-13">
          <mxGeometry x="-0.181" y="1" relative="1" as="geometry">
            <mxPoint x="3" y="-11" as="offset" />
          </mxGeometry>
        </mxCell>
        <mxCell id="OzDNeDnA2lBw9-A2b7hw-15" value="Is user&lt;br&gt;in a family" style="rhombus;whiteSpace=wrap;html=1;shadow=0;strokeWidth=1;spacing=6;spacingTop=-4;" vertex="1" parent="1">
          <mxGeometry x="1485" y="320" width="110" height="80" as="geometry" />
        </mxCell>
        <mxCell id="OzDNeDnA2lBw9-A2b7hw-16" value="" style="edgeStyle=orthogonalEdgeStyle;rounded=0;orthogonalLoop=1;jettySize=auto;html=1;" edge="1" parent="1" source="OzDNeDnA2lBw9-A2b7hw-20" target="OzDNeDnA2lBw9-A2b7hw-22">
          <mxGeometry relative="1" as="geometry" />
        </mxCell>
        <mxCell id="OzDNeDnA2lBw9-A2b7hw-17" value="No&lt;br&gt;" style="edgeLabel;html=1;align=center;verticalAlign=middle;resizable=0;points=[];" vertex="1" connectable="0" parent="OzDNeDnA2lBw9-A2b7hw-16">
          <mxGeometry x="-0.1556" y="3" relative="1" as="geometry">
            <mxPoint x="8" as="offset" />
          </mxGeometry>
        </mxCell>
        <mxCell id="OzDNeDnA2lBw9-A2b7hw-18" style="edgeStyle=orthogonalEdgeStyle;rounded=0;orthogonalLoop=1;jettySize=auto;html=1;" edge="1" parent="1" source="OzDNeDnA2lBw9-A2b7hw-20" target="OzDNeDnA2lBw9-A2b7hw-23">
          <mxGeometry relative="1" as="geometry" />
        </mxCell>
        <mxCell id="OzDNeDnA2lBw9-A2b7hw-19" value="Yes&lt;br&gt;" style="edgeLabel;html=1;align=center;verticalAlign=middle;resizable=0;points=[];" vertex="1" connectable="0" parent="OzDNeDnA2lBw9-A2b7hw-18">
          <mxGeometry y="2" relative="1" as="geometry">
            <mxPoint y="-13" as="offset" />
          </mxGeometry>
        </mxCell>
        <mxCell id="OzDNeDnA2lBw9-A2b7hw-20" value="Is user&lt;br&gt;in a family" style="rhombus;whiteSpace=wrap;html=1;shadow=0;strokeWidth=1;spacing=6;spacingTop=-4;" vertex="1" parent="1">
          <mxGeometry x="1674" y="160" width="110" height="80" as="geometry" />
        </mxCell>
        <mxCell id="OzDNeDnA2lBw9-A2b7hw-21" style="edgeStyle=orthogonalEdgeStyle;rounded=0;orthogonalLoop=1;jettySize=auto;html=1;entryX=0.5;entryY=1;entryDx=0;entryDy=0;entryPerimeter=0;" edge="1" parent="1" source="OzDNeDnA2lBw9-A2b7hw-22" target="OzDNeDnA2lBw9-A2b7hw-23">
          <mxGeometry relative="1" as="geometry">
            <mxPoint x="1970" y="220" as="targetPoint" />
          </mxGeometry>
        </mxCell>
        <mxCell id="OzDNeDnA2lBw9-A2b7hw-22" value="Create new family &amp;amp;&lt;br&gt;add user as owner" style="rounded=1;whiteSpace=wrap;html=1;shadow=0;strokeWidth=1;spacing=6;spacingTop=-4;" vertex="1" parent="1">
          <mxGeometry x="1669" y="330" width="120" height="60" as="geometry" />
        </mxCell>
        <mxCell id="OzDNeDnA2lBw9-A2b7hw-23" value="" style="strokeWidth=2;html=1;shape=mxgraph.flowchart.terminator;whiteSpace=wrap;" vertex="1" parent="1">
          <mxGeometry x="1930" y="185" width="70" height="30" as="geometry" />
        </mxCell>
        <mxCell id="OzDNeDnA2lBw9-A2b7hw-24" style="edgeStyle=orthogonalEdgeStyle;rounded=0;orthogonalLoop=1;jettySize=auto;html=1;entryX=0.5;entryY=0;entryDx=0;entryDy=0;" edge="1" parent="1" source="OzDNeDnA2lBw9-A2b7hw-25" target="OzDNeDnA2lBw9-A2b7hw-34">
          <mxGeometry relative="1" as="geometry" />
        </mxCell>
        <mxCell id="OzDNeDnA2lBw9-A2b7hw-25" value="&lt;meta charset=&quot;utf-8&quot;&gt;&lt;span style=&quot;color: rgb(240, 240, 240); font-family: Helvetica; font-size: 12px; font-style: normal; font-variant-ligatures: normal; font-variant-caps: normal; font-weight: 400; letter-spacing: normal; orphans: 2; text-align: center; text-indent: 0px; text-transform: none; widows: 2; word-spacing: 0px; -webkit-text-stroke-width: 0px; background-color: rgb(27, 29, 30); text-decoration-thickness: initial; text-decoration-style: initial; text-decoration-color: initial; float: none; display: inline !important;&quot;&gt;Prompt user if they want to switch&lt;/span&gt;" style="rounded=1;whiteSpace=wrap;html=1;shadow=0;strokeWidth=1;spacing=6;spacingTop=-4;" vertex="1" parent="1">
          <mxGeometry x="1480" y="640" width="120" height="60" as="geometry" />
        </mxCell>
        <mxCell id="OzDNeDnA2lBw9-A2b7hw-26" style="edgeStyle=orthogonalEdgeStyle;rounded=0;orthogonalLoop=1;jettySize=auto;html=1;entryX=0;entryY=0.5;entryDx=0;entryDy=0;" edge="1" parent="1" source="OzDNeDnA2lBw9-A2b7hw-27" target="OzDNeDnA2lBw9-A2b7hw-30">
          <mxGeometry relative="1" as="geometry" />
        </mxCell>
        <mxCell id="OzDNeDnA2lBw9-A2b7hw-27" value="Prompt user if they want to switch" style="rounded=1;whiteSpace=wrap;html=1;shadow=0;strokeWidth=1;spacing=6;spacingTop=-4;" vertex="1" parent="1">
          <mxGeometry x="1660" y="480" width="120" height="60" as="geometry" />
        </mxCell>
        <mxCell id="OzDNeDnA2lBw9-A2b7hw-28" style="edgeStyle=orthogonalEdgeStyle;rounded=0;orthogonalLoop=1;jettySize=auto;html=1;entryX=0;entryY=0.5;entryDx=0;entryDy=0;" edge="1" parent="1" source="OzDNeDnA2lBw9-A2b7hw-30" target="OzDNeDnA2lBw9-A2b7hw-31">
          <mxGeometry relative="1" as="geometry" />
        </mxCell>
        <mxCell id="OzDNeDnA2lBw9-A2b7hw-29" value="Yes" style="edgeLabel;html=1;align=center;verticalAlign=middle;resizable=0;points=[];" vertex="1" connectable="0" parent="OzDNeDnA2lBw9-A2b7hw-28">
          <mxGeometry x="0.1143" y="-1" relative="1" as="geometry">
            <mxPoint y="9" as="offset" />
          </mxGeometry>
        </mxCell>
        <mxCell id="OzDNeDnA2lBw9-A2b7hw-30" value="User want to switch?" style="rhombus;whiteSpace=wrap;html=1;shadow=0;fontFamily=Helvetica;fontSize=12;align=center;strokeWidth=1;spacing=6;spacingTop=-4;" vertex="1" parent="1">
          <mxGeometry x="1850" y="470" width="100" height="80" as="geometry" />
        </mxCell>
        <mxCell id="OzDNeDnA2lBw9-A2b7hw-31" value="Switch user to new&lt;br&gt;family" style="rounded=1;whiteSpace=wrap;html=1;shadow=0;strokeWidth=1;spacing=6;spacingTop=-4;" vertex="1" parent="1">
          <mxGeometry x="2020" y="480" width="120" height="60" as="geometry" />
        </mxCell>
        <mxCell id="OzDNeDnA2lBw9-A2b7hw-32" style="edgeStyle=orthogonalEdgeStyle;rounded=0;orthogonalLoop=1;jettySize=auto;html=1;entryX=0.5;entryY=0;entryDx=0;entryDy=0;" edge="1" parent="1" source="OzDNeDnA2lBw9-A2b7hw-34" target="OzDNeDnA2lBw9-A2b7hw-38">
          <mxGeometry relative="1" as="geometry" />
        </mxCell>
        <mxCell id="OzDNeDnA2lBw9-A2b7hw-33" value="Yes" style="edgeLabel;html=1;align=center;verticalAlign=middle;resizable=0;points=[];" vertex="1" connectable="0" parent="OzDNeDnA2lBw9-A2b7hw-32">
          <mxGeometry x="-0.1714" y="-1" relative="1" as="geometry">
            <mxPoint x="11" as="offset" />
          </mxGeometry>
        </mxCell>
        <mxCell id="OzDNeDnA2lBw9-A2b7hw-34" value="User want to switch?" style="rhombus;whiteSpace=wrap;html=1;shadow=0;fontFamily=Helvetica;fontSize=12;align=center;strokeWidth=1;spacing=6;spacingTop=-4;" vertex="1" parent="1">
          <mxGeometry x="1490" y="750" width="100" height="80" as="geometry" />
        </mxCell>
        <mxCell id="OzDNeDnA2lBw9-A2b7hw-35" value="" style="strokeWidth=2;html=1;shape=mxgraph.flowchart.terminator;whiteSpace=wrap;" vertex="1" parent="1">
          <mxGeometry x="1694" y="775" width="70" height="30" as="geometry" />
        </mxCell>
        <mxCell id="OzDNeDnA2lBw9-A2b7hw-36" style="edgeStyle=orthogonalEdgeStyle;rounded=0;orthogonalLoop=1;jettySize=auto;html=1;entryX=0;entryY=0.5;entryDx=0;entryDy=0;entryPerimeter=0;" edge="1" parent="1" source="OzDNeDnA2lBw9-A2b7hw-34" target="OzDNeDnA2lBw9-A2b7hw-35">
          <mxGeometry relative="1" as="geometry" />
        </mxCell>
        <mxCell id="OzDNeDnA2lBw9-A2b7hw-37" value="No" style="edgeLabel;html=1;align=center;verticalAlign=middle;resizable=0;points=[];" vertex="1" connectable="0" parent="OzDNeDnA2lBw9-A2b7hw-36">
          <mxGeometry x="0.1111" relative="1" as="geometry">
            <mxPoint y="10" as="offset" />
          </mxGeometry>
        </mxCell>
        <mxCell id="OzDNeDnA2lBw9-A2b7hw-38" value="&lt;span style=&quot;color: rgb(240, 240, 240); font-family: Helvetica; font-size: 12px; font-style: normal; font-variant-ligatures: normal; font-variant-caps: normal; font-weight: 400; letter-spacing: normal; orphans: 2; text-align: center; text-indent: 0px; text-transform: none; widows: 2; word-spacing: 0px; -webkit-text-stroke-width: 0px; background-color: rgb(27, 29, 30); text-decoration-thickness: initial; text-decoration-style: initial; text-decoration-color: initial; float: none; display: inline !important;&quot;&gt;Deactivate user&#39;s family&lt;br&gt;and switch them to other family&lt;br&gt;&lt;/span&gt;" style="rounded=1;whiteSpace=wrap;html=1;shadow=0;strokeWidth=1;spacing=6;spacingTop=-4;" vertex="1" parent="1">
          <mxGeometry x="1480" y="900" width="120" height="60" as="geometry" />
        </mxCell>
        <mxCell id="OzDNeDnA2lBw9-A2b7hw-39" value="Add user to family they invited to" style="rounded=1;whiteSpace=wrap;html=1;fontSize=12;glass=0;strokeWidth=1;shadow=0;" vertex="1" parent="1">
          <mxGeometry x="1330" y="340" width="120" height="40" as="geometry" />
        </mxCell>
        <mxCell id="OzDNeDnA2lBw9-A2b7hw-40" value="" style="strokeWidth=2;html=1;shape=mxgraph.flowchart.terminator;whiteSpace=wrap;" vertex="1" parent="1">
          <mxGeometry x="1355" y="440" width="70" height="30" as="geometry" />
        </mxCell>
        <mxCell id="OzDNeDnA2lBw9-A2b7hw-41" style="edgeStyle=orthogonalEdgeStyle;rounded=0;orthogonalLoop=1;jettySize=auto;html=1;entryX=0.5;entryY=0;entryDx=0;entryDy=0;entryPerimeter=0;" edge="1" parent="1" source="OzDNeDnA2lBw9-A2b7hw-39" target="OzDNeDnA2lBw9-A2b7hw-40">
          <mxGeometry relative="1" as="geometry" />
        </mxCell>
        <mxCell id="OzDNeDnA2lBw9-A2b7hw-42" value="" style="strokeWidth=2;html=1;shape=mxgraph.flowchart.terminator;whiteSpace=wrap;" vertex="1" parent="1">
          <mxGeometry x="1865" y="630" width="70" height="30" as="geometry" />
        </mxCell>
        <mxCell id="OzDNeDnA2lBw9-A2b7hw-43" style="edgeStyle=orthogonalEdgeStyle;rounded=0;orthogonalLoop=1;jettySize=auto;html=1;entryX=0.5;entryY=0;entryDx=0;entryDy=0;entryPerimeter=0;" edge="1" parent="1" source="OzDNeDnA2lBw9-A2b7hw-30" target="OzDNeDnA2lBw9-A2b7hw-42">
          <mxGeometry relative="1" as="geometry" />
        </mxCell>
        <mxCell id="OzDNeDnA2lBw9-A2b7hw-44" value="No" style="edgeLabel;html=1;align=center;verticalAlign=middle;resizable=0;points=[];" vertex="1" connectable="0" parent="OzDNeDnA2lBw9-A2b7hw-43">
          <mxGeometry y="3" relative="1" as="geometry">
            <mxPoint x="7" as="offset" />
          </mxGeometry>
        </mxCell>
        <mxCell id="OzDNeDnA2lBw9-A2b7hw-45" style="edgeStyle=orthogonalEdgeStyle;rounded=0;orthogonalLoop=1;jettySize=auto;html=1;entryX=1;entryY=0.5;entryDx=0;entryDy=0;entryPerimeter=0;" edge="1" parent="1" source="OzDNeDnA2lBw9-A2b7hw-31" target="OzDNeDnA2lBw9-A2b7hw-42">
          <mxGeometry relative="1" as="geometry">
            <Array as="points">
              <mxPoint x="2080" y="645" />
            </Array>
          </mxGeometry>
        </mxCell>
        <mxCell id="OzDNeDnA2lBw9-A2b7hw-46" style="edgeStyle=orthogonalEdgeStyle;rounded=0;orthogonalLoop=1;jettySize=auto;html=1;entryX=0.5;entryY=1;entryDx=0;entryDy=0;entryPerimeter=0;" edge="1" parent="1" source="OzDNeDnA2lBw9-A2b7hw-38" target="OzDNeDnA2lBw9-A2b7hw-35">
          <mxGeometry relative="1" as="geometry" />
        </mxCell>
        <mxCell id="OzDNeDnA2lBw9-A2b7hw-47" value="&lt;font style=&quot;font-size: 18px;&quot;&gt;Documentation of Invitation Logic&lt;/font&gt;" style="text;html=1;strokeColor=none;fillColor=none;align=center;verticalAlign=middle;whiteSpace=wrap;rounded=0;" vertex="1" parent="1">
          <mxGeometry x="1640" y="70" width="320" height="30" as="geometry" />
        </mxCell>
      </root>
    </mxGraphModel>
  </diagram>
</mxfile>
